<svg xmlns="http://www.w3.org/2000/svg" width="512" height="512" viewBox="0 0 512 512" role="img" aria-labelledby="title desc">
  <title id="title">Projeto Vetor</title>
  <desc id="desc">Símbolo azul-marinho e ciano da marca Projeto Vetor.</desc>
  <defs>
    <radialGradient id="navy" cx="50%" cy="40%" r="65%">
      <stop offset="0" stop-color="#123c67"/>
      <stop offset="1" stop-color="#04284d"/>
    </radialGradient>
    <linearGradient id="cyan" x1="0" y1="0" x2="1" y2="1">
      <stop offset="0" stop-color="#20cbe0"/>
      <stop offset="1" stop-color="#079dbb"/>
    </linearGradient>
  </defs>
  <circle cx="256" cy="256" r="238" fill="url(#navy)"/>
  <circle cx="256" cy="256" r="220" fill="none" stroke="#fff9e8" stroke-width="10"/>
  <path d="M105 321 256 74v87L151 321Z" fill="url(#cyan)"/>
  <path d="m256 74 70 145-31 51-39-81Z" fill="#fff9e8"/>
  <path d="m256 190 68 123-42-27-26-45Z" fill="#fff9e8"/>
  <path d="m306 250 37-66 88 154-42-23-46-82-17 31Z" fill="url(#cyan)"/>
  <path d="m343 184 88 154-42-23-46-82Z" fill="#fff9e8"/>
  <text x="256" y="376" fill="#fff9e8" font-family="Arial, Helvetica, sans-serif" font-size="43" font-weight="700" letter-spacing="8" text-anchor="middle">PROJETO</text>
  <text x="256" y="430" fill="#fff9e8" font-family="Arial, Helvetica, sans-serif" font-size="58" font-weight="700" letter-spacing="5" text-anchor="middle">VETOR</text>
</svg>
